<?xml version="1.0" encoding="UTF-8" standalone="no"?>
<svg
   xmlns:dc="http://purl.org/dc/elements/1.1/"
   xmlns:cc="http://creativecommons.org/ns#"
   xmlns:rdf="http://www.w3.org/1999/02/22-rdf-syntax-ns#"
   xmlns:svg="http://www.w3.org/2000/svg"
   xmlns="http://www.w3.org/2000/svg"
   xmlns:sodipodi="http://sodipodi.sourceforge.net/DTD/sodipodi-0.dtd"
   xmlns:inkscape="http://www.inkscape.org/namespaces/inkscape"
   viewBox="0.0 0.0 348.0 348.0"
   fill="none"
   id="svg2"
   version="1.1"
   inkscape:version="0.91 r13725"
   sodipodi:docname="Homophones.svg">
  <metadata
     id="metadata12">
    <rdf:RDF>
      <cc:Work
         rdf:about="">
        <dc:format>image/svg+xml</dc:format>
        <dc:type
           rdf:resource="http://purl.org/dc/dcmitype/StillImage" />
      </cc:Work>
    </rdf:RDF>
  </metadata>
  <defs
     id="defs10" />
  <sodipodi:namedview
     pagecolor="#ffffff"
     bordercolor="#666666"
     borderopacity="1"
     objecttolerance="10"
     gridtolerance="10"
     guidetolerance="10"
     inkscape:pageopacity="0"
     inkscape:pageshadow="2"
     inkscape:window-width="1440"
     inkscape:window-height="785"
     id="namedview8"
     showgrid="false"
     inkscape:zoom="1.3563218"
     inkscape:cx="157.12586"
     inkscape:cy="153.63702"
     inkscape:window-x="0"
     inkscape:window-y="1"
     inkscape:window-maximized="1"
     inkscape:current-layer="svg2" />
  <path
     d="M5.079 5.776h336.913v337.67H5.08z"
     stroke-width="2"
     stroke="#000"
     id="path4" />
  <path
     d="M282.734 40.554c0-8.376 6.966-15.165 15.56-15.165 4.126 0 8.084 1.597 11.001 4.441 2.918 2.844 4.558 6.702 4.558 10.724 0 8.376-6.966 15.165-15.56 15.165-8.593 0-15.559-6.79-15.559-15.165z"
     stroke-width="2"
     stroke="#000"
     id="path6" />
  <rect
     y="23.927856"
     x="27.559214"
     height="57.05954"
     width="150.901"
     id="rect4279"
     style="fill:#ffffff;fill-opacity:1;fill-rule:evenodd;stroke:#000000;stroke-width:3;stroke-linecap:butt;stroke-linejoin:miter;stroke-miterlimit:4;stroke-dasharray:none;stroke-opacity:1" />
  <rect
     style="fill:#ffffff;fill-opacity:1;fill-rule:evenodd;stroke:#000000;stroke-width:3.51280117;stroke-linecap:butt;stroke-linejoin:miter;stroke-miterlimit:4;stroke-dasharray:none;stroke-opacity:1"
     id="rect4182"
     width="289.96228"
     height="76.739952"
     x="28.409687"
     y="131.13197" />
  <circle
     style="fill:none;fill-opacity:1;stroke:#000000;stroke-width:1.6541996;stroke-linejoin:miter;stroke-miterlimit:10;stroke-dasharray:none;stroke-opacity:1"
     id="circle4146"
     cx="43.016693"
     cy="146.22009"
     r="9.1486301" />
  <circle
     r="9.1486301"
     cy="191.41521"
     cx="43.016693"
     id="circle4184"
     style="fill:none;fill-opacity:1;stroke:#000000;stroke-width:1.6541996;stroke-linejoin:miter;stroke-miterlimit:10;stroke-dasharray:none;stroke-opacity:1" />
  <g
     style="font-style:normal;font-weight:normal;font-size:40px;line-height:125%;font-family:sans-serif;letter-spacing:0px;word-spacing:0px;fill:#000000;fill-opacity:1;stroke:none;stroke-width:1px;stroke-linecap:butt;stroke-linejoin:miter;stroke-opacity:1"
     id="text4190">
    <path
       d="m 60.350244,49.304893 c 0,8.68 5.2,13.48 11.88,13.48 3.28,0 6.04,-1.36 8.16,-3.8 l -2.6,-2.84 c -1.48,1.64 -3.16,2.6 -5.48,2.6 -4.4,0 -7.2,-3.6 -7.2,-9.56 0,-5.88 3.04,-9.48 7.36,-9.48 2,0 3.48,0.84 4.8,2.16 l 2.6,-2.88 c -1.64,-1.76 -4.28,-3.32 -7.44,-3.32 -6.72,0 -12.08,5.08 -12.08,13.64 z"
       style="font-style:normal;font-variant:normal;font-weight:normal;font-stretch:normal;font-family:'Falling Sky';-inkscape-font-specification:'Falling Sky'"
       id="path4278" />
    <path
       d="m 83.878994,66.384893 -0.84,3.6 c 0.72,0.24 1.48,0.4 2.56,0.4 4.28,0 6.32,-2.76 7.96,-7.2 l 7.119996,-20.52 -4.439996,0 -2.96,9.64 c -0.48,1.76 -1,3.72 -1.48,5.52 l -0.16,0 c -0.6,-1.84 -1.16,-3.8 -1.72,-5.52 l -3.4,-9.64 -4.68,0 7.72,19.4 -0.36,1.24 c -0.64,1.96 -1.84,3.36 -3.92,3.36 -0.48,0 -1.04,-0.16 -1.4,-0.28 z"
       style="font-style:normal;font-variant:normal;font-weight:normal;font-stretch:normal;font-family:'Falling Sky';-inkscape-font-specification:'Falling Sky'"
       id="path4280" />
    <path
       d="m 102.76462,52.504893 c 0,6.52 4.12,10.28 9.48,10.28 2.24,0 4.6,-0.88 6.44,-2.52 l -1.92,-2.92 c -1.08,0.88 -2.44,1.68 -4.04,1.68 -3.08,0 -5.24,-2.6 -5.24,-6.52 0,-3.96 2.2,-6.56 5.36,-6.56 1.24,0 2.28,0.52 3.32,1.44 l 2.2,-2.92 c -1.32,-1.28 -3.24,-2.28 -5.76,-2.28 -5.24,0 -9.84,3.76 -9.84,10.32 z"
       style="font-style:normal;font-variant:normal;font-weight:normal;font-stretch:normal;font-family:'Falling Sky';-inkscape-font-specification:'Falling Sky'"
       id="path4282" />
    <path
       d="m 122.56024,57.264893 c 0,3.4 1.2,5.52 4.48,5.52 1.08,0 1.88,-0.16 2.44,-0.4 l -0.6,-3.44 c -0.36,0.08 -0.52,0.08 -0.72,0.08 -0.48,0 -1,-0.4 -1,-1.52 l 0,-23.44 -4.6,0 0,23.2 z"
       style="font-style:normal;font-variant:normal;font-weight:normal;font-stretch:normal;font-family:'Falling Sky';-inkscape-font-specification:'Falling Sky'"
       id="path4284" />
    <path
       d="m 132.13962,52.504893 c 0,6.48 4.24,10.28 9.68,10.28 2.48,0 4.84,-0.88 6.72,-2.12 l -1.56,-2.88 c -1.44,0.92 -2.88,1.44 -4.56,1.44 -3.16,0 -5.4,-2 -5.8,-5.56 l 12.48,0 c 0.12,-0.48 0.2,-1.28 0.2,-2.16 0,-5.48 -2.8,-9.32 -8.12,-9.32 -4.6,0 -9.04,3.92 -9.04,10.32 z m 4.44,-1.76 c 0.4,-3.28 2.4,-5 4.72,-5 2.68,0 4,1.88 4,5 l -8.72,0 z"
       style="font-style:normal;font-variant:normal;font-weight:normal;font-stretch:normal;font-family:'Falling Sky';-inkscape-font-specification:'Falling Sky'"
       id="path4286" />
  </g>
  <g
     style="font-style:normal;font-weight:normal;font-size:40px;line-height:125%;font-family:sans-serif;letter-spacing:0px;word-spacing:0px;fill:#000000;fill-opacity:1;stroke:none;stroke-width:1px;stroke-linecap:butt;stroke-linejoin:miter;stroke-opacity:1"
     id="text4194">
    <path
       d="m 112.77195,177.48661 c 0,4.25 1.5,6.9 5.6,6.9 1.35,0 2.35,-0.2 3.05,-0.5 l -0.75,-4.3 c -0.45,0.1 -0.65,0.1 -0.9,0.1 -0.6,0 -1.25,-0.5 -1.25,-1.9 l 0,-29.3 -5.75,0 0,29 z"
       style="font-style:normal;font-variant:normal;font-weight:normal;font-stretch:normal;font-size:50px;font-family:'Falling Sky';-inkscape-font-specification:'Falling Sky'"
       id="path4289" />
    <path
       d="m 124.74617,171.53661 c 0,8.1 5.3,12.85 12.1,12.85 3.1,0 6.05,-1.1 8.4,-2.65 l -1.95,-3.6 c -1.8,1.15 -3.6,1.8 -5.7,1.8 -3.95,0 -6.75,-2.5 -7.25,-6.95 l 15.6,0 c 0.15,-0.6 0.25,-1.6 0.25,-2.7 0,-6.85 -3.5,-11.65 -10.15,-11.65 -5.75,0 -11.3,4.9 -11.3,12.9 z m 5.55,-2.2 c 0.5,-4.1 3,-6.25 5.9,-6.25 3.35,0 5,2.35 5,6.25 l -10.9,0 z"
       style="font-style:normal;font-variant:normal;font-weight:normal;font-stretch:normal;font-size:50px;font-family:'Falling Sky';-inkscape-font-specification:'Falling Sky'"
       id="path4291" />
    <path
       d="m 151.63914,183.78661 5.75,0 0,-17.15 c 1.9,-2.05 3.65,-3.05 5.15,-3.05 2.6,0 3.8,1.5 3.8,5.55 l 0,14.65 5.75,0 0,-17.15 c 1.9,-2.05 3.6,-3.05 5.15,-3.05 2.55,0 3.75,1.5 3.75,5.55 l 0,14.65 5.8,0 0,-15.4 c 0,-6.2 -2.4,-9.75 -7.6,-9.75 -3.1,0 -5.55,1.9 -7.9,4.4 -1.15,-2.75 -3.2,-4.4 -6.8,-4.4 -3.05,0 -5.45,1.75 -7.5,3.95 l -0.2,0 -0.4,-3.35 -4.75,0 0,24.55 z"
       style="font-style:normal;font-variant:normal;font-weight:normal;font-stretch:normal;font-size:50px;font-family:'Falling Sky';-inkscape-font-specification:'Falling Sky'"
       id="path4293" />
    <path
       d="m 193.47898,174.63661 c 0,6.2 2.3,9.75 7.55,9.75 3.35,0 5.75,-1.65 7.9,-4.2 l 0.15,0 0.45,3.6 4.7,0 0,-24.55 -5.75,0 0,16.8 c -1.85,2.4 -3.3,3.4 -5.45,3.4 -2.65,0 -3.8,-1.5 -3.8,-5.55 l 0,-14.65 -5.75,0 0,15.4 z"
       style="font-style:normal;font-variant:normal;font-weight:normal;font-stretch:normal;font-size:50px;font-family:'Falling Sky';-inkscape-font-specification:'Falling Sky'"
       id="path4295" />
    <path
       d="m 221.56101,183.78661 5.75,0 0,-15 c 1.5,-3.7 3.85,-5.05 5.8,-5.05 1.05,0 1.7,0.15 2.55,0.4 l 1,-5 c -0.75,-0.35 -1.55,-0.5 -2.8,-0.5 -2.6,0 -5.2,1.75 -6.95,4.95 l -0.2,0 -0.4,-4.35 -4.75,0 0,24.55 z"
       style="font-style:normal;font-variant:normal;font-weight:normal;font-stretch:normal;font-size:50px;font-family:'Falling Sky';-inkscape-font-specification:'Falling Sky'"
       id="path4297" />
  </g>
  <circle
     r="19.951052"
     cy="278.18655"
     cx="45.699623"
     id="circle4168"
     style="fill:none;fill-opacity:1;stroke:#000000;stroke-width:2;stroke-linejoin:miter;stroke-miterlimit:10;stroke-dasharray:none;stroke-opacity:1" />
  <g
     style="font-style:normal;font-weight:normal;font-size:40px;line-height:125%;font-family:sans-serif;letter-spacing:0px;word-spacing:0px;fill:#000000;fill-opacity:1;stroke:none;stroke-width:1px;stroke-linecap:butt;stroke-linejoin:miter;stroke-opacity:1"
     id="text4198">
    <path
       d="m 45.326096,288.34123 c 4.29,0 7.02,-3.835 7.02,-10.8225 0,-6.955 -2.73,-10.6275 -7.02,-10.6275 -4.29,0 -7.02,3.64 -7.02,10.6275 0,6.9875 2.73,10.8225 7.02,10.8225 z m 0,-2.925 c -1.9825,0 -3.445,-2.0475 -3.445,-7.8975 0,-5.85 1.4625,-7.7025 3.445,-7.7025 2.015,0 3.445,1.8525 3.445,7.7025 0,5.85 -1.43,7.8975 -3.445,7.8975 z"
       style="font-style:normal;font-variant:normal;font-weight:normal;font-stretch:normal;font-size:32.5px;font-family:'Falling Sky';-inkscape-font-specification:'Falling Sky'"
       id="path4300" />
  </g>
  <path
     style="fill:none;fill-rule:evenodd;stroke:#000000;stroke-width:1px;stroke-linecap:butt;stroke-linejoin:miter;stroke-opacity:1"
     d="m 45.964401,230.93644 -10,25.06356 10,-11.64243 10,11.64243 z"
     id="path4204"
     inkscape:connector-curvature="0"
     sodipodi:nodetypes="ccccc" />
  <path
     sodipodi:nodetypes="ccccc"
     inkscape:connector-curvature="0"
     id="path4208"
     d="m 45.964401,325.34518 10,-25.06356 -10,11.64243 -10,-11.64243 z"
     style="fill:none;fill-rule:evenodd;stroke:#000000;stroke-width:1px;stroke-linecap:butt;stroke-linejoin:miter;stroke-opacity:1" />
  <circle
     style="fill:none;fill-opacity:1;stroke:#000000;stroke-width:2;stroke-linejoin:miter;stroke-miterlimit:10;stroke-dasharray:none;stroke-opacity:1"
     id="circle4219"
     cx="135.69962"
     cy="278.18655"
     r="19.951052" />
  <g
     style="font-style:normal;font-weight:normal;font-size:40px;line-height:125%;font-family:sans-serif;letter-spacing:0px;word-spacing:0px;fill:#000000;fill-opacity:1;stroke:none;stroke-width:1px;stroke-linecap:butt;stroke-linejoin:miter;stroke-opacity:1"
     id="text4221">
    <path
       d="m 135.3261,288.34123 c 4.29,0 7.02,-3.835 7.02,-10.8225 0,-6.955 -2.73,-10.6275 -7.02,-10.6275 -4.29,0 -7.02,3.64 -7.02,10.6275 0,6.9875 2.73,10.8225 7.02,10.8225 z m 0,-2.925 c -1.9825,0 -3.445,-2.0475 -3.445,-7.8975 0,-5.85 1.4625,-7.7025 3.445,-7.7025 2.015,0 3.445,1.8525 3.445,7.7025 0,5.85 -1.43,7.8975 -3.445,7.8975 z"
       style="font-style:normal;font-variant:normal;font-weight:normal;font-stretch:normal;font-size:32.5px;font-family:'Falling Sky';-inkscape-font-specification:'Falling Sky'"
       id="path4303" />
  </g>
  <path
     sodipodi:nodetypes="ccccc"
     inkscape:connector-curvature="0"
     id="path4225"
     d="m 135.9644,230.93644 -10,25.06356 10,-11.64243 10,11.64243 z"
     style="fill:none;fill-rule:evenodd;stroke:#000000;stroke-width:1px;stroke-linecap:butt;stroke-linejoin:miter;stroke-opacity:1" />
  <path
     style="fill:none;fill-rule:evenodd;stroke:#000000;stroke-width:1px;stroke-linecap:butt;stroke-linejoin:miter;stroke-opacity:1"
     d="m 135.9644,325.34518 10,-25.06356 -10,11.64243 -10,-11.64243 z"
     id="path4227"
     inkscape:connector-curvature="0"
     sodipodi:nodetypes="ccccc" />
  <circle
     r="19.951052"
     cy="278.18655"
     cx="215.69962"
     id="circle4231"
     style="fill:none;fill-opacity:1;stroke:#000000;stroke-width:2;stroke-linejoin:miter;stroke-miterlimit:10;stroke-dasharray:none;stroke-opacity:1" />
  <g
     style="font-style:normal;font-weight:normal;font-size:40px;line-height:125%;font-family:sans-serif;letter-spacing:0px;word-spacing:0px;fill:#000000;fill-opacity:1;stroke:none;stroke-width:1px;stroke-linecap:butt;stroke-linejoin:miter;stroke-opacity:1"
     id="text4233">
    <path
       d="m 215.3261,288.34123 c 4.29,0 7.02,-3.835 7.02,-10.8225 0,-6.955 -2.73,-10.6275 -7.02,-10.6275 -4.29,0 -7.02,3.64 -7.02,10.6275 0,6.9875 2.73,10.8225 7.02,10.8225 z m 0,-2.925 c -1.9825,0 -3.445,-2.0475 -3.445,-7.8975 0,-5.85 1.4625,-7.7025 3.445,-7.7025 2.015,0 3.445,1.8525 3.445,7.7025 0,5.85 -1.43,7.8975 -3.445,7.8975 z"
       style="font-style:normal;font-variant:normal;font-weight:normal;font-stretch:normal;font-size:32.5px;font-family:'Falling Sky';-inkscape-font-specification:'Falling Sky'"
       id="path4306" />
  </g>
  <path
     style="fill:none;fill-rule:evenodd;stroke:#000000;stroke-width:1px;stroke-linecap:butt;stroke-linejoin:miter;stroke-opacity:1"
     d="m 215.9644,230.93644 -10,25.06356 10,-11.64243 10,11.64243 z"
     id="path4237"
     inkscape:connector-curvature="0"
     sodipodi:nodetypes="ccccc" />
  <path
     sodipodi:nodetypes="ccccc"
     inkscape:connector-curvature="0"
     id="path4239"
     d="m 215.9644,325.34518 10,-25.06356 -10,11.64243 -10,-11.64243 z"
     style="fill:none;fill-rule:evenodd;stroke:#000000;stroke-width:1px;stroke-linecap:butt;stroke-linejoin:miter;stroke-opacity:1" />
  <circle
     style="fill:none;fill-opacity:1;stroke:#000000;stroke-width:2;stroke-linejoin:miter;stroke-miterlimit:10;stroke-dasharray:none;stroke-opacity:1"
     id="circle4243"
     cx="305.69962"
     cy="278.18655"
     r="19.951052" />
  <g
     style="font-style:normal;font-weight:normal;font-size:40px;line-height:125%;font-family:sans-serif;letter-spacing:0px;word-spacing:0px;fill:#000000;fill-opacity:1;stroke:none;stroke-width:1px;stroke-linecap:butt;stroke-linejoin:miter;stroke-opacity:1"
     id="text4245">
    <path
       d="m 305.3261,288.34123 c 4.29,0 7.02,-3.835 7.02,-10.8225 0,-6.955 -2.73,-10.6275 -7.02,-10.6275 -4.29,0 -7.02,3.64 -7.02,10.6275 0,6.9875 2.73,10.8225 7.02,10.8225 z m 0,-2.925 c -1.9825,0 -3.445,-2.0475 -3.445,-7.8975 0,-5.85 1.4625,-7.7025 3.445,-7.7025 2.015,0 3.445,1.8525 3.445,7.7025 0,5.85 -1.43,7.8975 -3.445,7.8975 z"
       style="font-style:normal;font-variant:normal;font-weight:normal;font-stretch:normal;font-size:32.5px;font-family:'Falling Sky';-inkscape-font-specification:'Falling Sky'"
       id="path4309" />
  </g>
  <path
     sodipodi:nodetypes="ccccc"
     inkscape:connector-curvature="0"
     id="path4249"
     d="m 305.9644,230.93644 -10,25.06356 10,-11.64243 10,11.64243 z"
     style="fill:none;fill-rule:evenodd;stroke:#000000;stroke-width:1px;stroke-linecap:butt;stroke-linejoin:miter;stroke-opacity:1" />
  <path
     style="fill:none;fill-rule:evenodd;stroke:#000000;stroke-width:1px;stroke-linecap:butt;stroke-linejoin:miter;stroke-opacity:1"
     d="m 305.9644,325.34518 10,-25.06356 -10,11.64243 -10,-11.64243 z"
     id="path4251"
     inkscape:connector-curvature="0"
     sodipodi:nodetypes="ccccc" />
  <circle
     r="9.1486301"
     cy="146.22009"
     cx="302.54211"
     id="circle4253"
     style="fill:none;fill-opacity:1;stroke:#000000;stroke-width:1.6541996;stroke-linejoin:miter;stroke-miterlimit:10;stroke-dasharray:none;stroke-opacity:1" />
  <circle
     style="fill:none;fill-opacity:1;stroke:#000000;stroke-width:1.6541996;stroke-linejoin:miter;stroke-miterlimit:10;stroke-dasharray:none;stroke-opacity:1"
     id="circle4255"
     cx="302.54211"
     cy="191.41521"
     r="9.1486301" />
</svg>
